<?xml version="1.0" encoding="UTF-8"?>
<svg version="1.1" viewBox="0 0 2000 2000" width="500" height="500" xmlns="http://www.w3.org/2000/svg">
<path transform="translate(0)" d="m0 0h2e3v2e3h-2e3z"/>
<path transform="translate(1096,713)" d="m0 0h33l35 2 45 6 38 8 22 6 36 12 33 15 21 11 22 14 18 13 17 13 14 12 13 12 5 4v2l4 2 13 14 9 11 11 13 12 17 16 24 14 26 12 24 15 39 10 33 6 24 8 42 5 42 2 25 1 24v59l-3 42-5 38-7 36-7 28-11 35-11 28-9 20-15 30-15 25-16 23-10 13-9 11-13 15-7 7-7 8-26 24-30 23-27 18-22 13-27 14-27 12-26 10-31 10-36 9-32 6-29 4-44 4-2-1-1-322 2-2 20-6 15-6 16-8 15-9 14-11 14-13 9-11 9-12 9-15 8-16 7-19 5-18 4-20 3-30v-37l-3-29-5-25-6-21-9-21-10-19-12-17-14-15-8-8-16-12-21-12-16-7-29-10v-302z" fill="#fff"/>
<path transform="translate(1082,123)" d="m0 0 25 2 42 6 37 8 31 9 30 11 32 14 26 14 19 12 15 10 14 10 16 13 13 11 13 12 21 21 7 8 11 13 12 16 14 21 8 13 10 18 18 37 8 20 15 42 5 17 9 39 6 39 3 21v6l-2 1h-347l-3-7-9-31-8-21-8-17-11-18-10-13-11-12-11-9-15-10-23-11-2-2z" fill="#fff"/>
<path transform="translate(815,721)" d="m0 0h19l20 2 21 6 17 8 14 10 10 9 9 11 8 14 5 12 4 15 2 17v12l-3 20-6 18-7 14-10 13-10 10-14 10-15 8-15 5-14 3-8 1h-32l-19-3-16-5-16-8-12-8-13-12-8-10-8-14-5-12-4-16-2-15v-12l3-20 5-16 8-16 9-12 8-9 13-10 14-8 12-5 13-4 12-2z"/>
<path transform="translate(974,1228)" d="m0 0h2v75l-4 4-44 29-27 18-6 2v3l6 2 15 9 58 34 2 3v72l-5-1-10-7-26-16-57-36-22-14-14-9-5 1-44 29-43 29-39 26-3-1v-73l5-5 11-7 43-29 20-13-5-4-58-34-13-8-3-3v-71h4l20 12 41 26 24 15 38 24 6 4h5l11-8 44-29 43-29 27-18z" fill="#fff"/>
<path transform="translate(886,1574)" d="m0 0h19l15 3 12 5 10 6 11 9 10 13 8 16 5 16 2 10 1 10v21l-3 20-5 18-8 16-6 9-11 12-10 7-12 6-15 4-12 1-1-1v-68l9-3 10-5 6-7 3-7 1-5v-14l-3-10-4-6-6-5-8-2-10 1-7 4-7 8-8 17-12 37-9 22-6 11-7 9-5 5-9 8-15 7-13 3h-24l-16-4-14-7-12-10-10-13-9-19-5-19-2-20v-11l2-20 5-19 6-14 8-12 9-10 7-6 12-7 16-5 11-2h5v70l-12 5-6 4-6 8-2 6-1 12 2 10 5 8 8 4 4 1h9l10-5 7-10 8-18 11-32 10-24 9-15 9-10 10-8 13-6z" fill="#fff"/>
<path transform="translate(709,1491)" d="m0 0h266l1 1v64h-267l-1-1v-63z" fill="#fff"/>
<path transform="translate(767,533)" d="m0 0 16 1 13 4 11 6 9 8 7 11 5 13 2 11v71l-120-1v-65l2-15 4-12 6-11 8-9 9-6 11-4z"/>
<path transform="translate(819,703)" d="m0 0h13l21 2 17 4 16 6 17 9 12 9 10 9 9 10 9 14 7 14 6 19 3 19v25l-3 18-5 17-8 16-7 11-11 13-7 7-13 10-18 10-20 7-20 4-10 1h-23l-23-3-20-6-16-8-14-9-11-9v-2l-4-2-9-11-9-14-6-12-6-18-3-16v-34l4-20 6-16 9-17 10-13 15-15 15-10 15-8 21-7 18-3zm-4 18-17 2-16 4-13 5-13 7-11 8-10 9-10 13-6 10-7 17-4 19-1 9v12l3 20 5 17 9 17 10 13 8 8 12 9 16 9 17 6 15 3 8 1h32l18-3 16-5 16-8 12-8 12-11 8-9 9-15 7-19 3-16 1-8v-12l-3-22-6-18-8-15-7-9-9-10-10-8-13-8-13-6-21-6-20-2z" fill="#fff"/>
<path transform="translate(953,514)" d="m0 0h3v19l-3 3-22 13-20 12-28 17-35 21-2 1-1 57h110l1 1v16l-1 1h-260v-86l3-20 6-16 7-11 9-10 14-9 12-5 12-2h24l15 3 16 8 10 8 8 10 8 17 4 16v3l27-16 28-17 26-16 28-17zm-186 19-17 2-11 4-11 8-6 7-7 13-4 15-1 10v65l120 1v-71l-3-14-5-12-8-11-10-8-13-6-8-2z" fill="#fff"/>
<path transform="translate(768,976)" d="m0 0 4 1v17l-8 5-14 8-10 8-9 9-10 15-8 19-4 20-1 9v15l4 24 6 16 6 11 10 13 8 8 14 10 16 8 18 6 19 3h33l19-3 18-6 17-9 12-9 5-4 9-11 7-10 7-15 5-19 1-9v-25l-2-14-6-20-7-13-10-13-8-8-13-9-17-9v-19l5 1 16 8 11 7 11 9 8 8 11 15 10 21 5 18 2 12 1 11v18l-2 15-4 16-6 15-6 11-10 14-15 15-14 10-16 8-16 6-17 4-6 1-28 1-22-2-20-5-19-8-15-9-13-11-10-10-10-14-9-17-6-19-2-10-1-11v-19l2-19 5-18 7-17 10-16 12-13 11-10 15-9z" fill="#fff"/>
<path transform="translate(877,173)" d="m0 0h24l14 4 12 7 11 9 8 11 8 16 4 17 1 10v14l-3 19-4 13-7 14-8 10-7 7-11 7-12 5-10 3h-5l-1-5v-11l1-2 15-5 12-7 10-9 7-10 4-11 3-18v-13l-2-15-4-12-7-12-8-8-10-6-13-4h-19l-11 3-11 7-7 8-8 16-8 24-11 37-7 17-10 14-9 8-14 7-14 3h-20l-12-3-14-7-10-9-7-8-7-12-5-14-2-10-1-11v-13l2-17 5-15 7-13 9-11 10-8 14-7 9-3 4 1v16l-19 10-10 9-7 11-5 12-3 14v19l4 17 7 14 10 11 14 7 9 2h16l12-3 10-6 9-9 8-15 8-25 7-25 8-22 8-15 9-10 9-7 12-5z" fill="#fff"/>
<path transform="translate(695,356)" d="m0 0 14 1 1 3-1 112 108-1v-102l1-1 13-1 1 1 1 103 108 1v-115l13-1 2 1v131l-130 1h-127l-4-1-1-131z" fill="#fff"/>
</svg>
